Coordinates
version=1
nRows=7
nColumns=40
inDegrees=yes

Units are S.I. units (second, meters, Newtons, ...)
If the header above contains a line with 'inDegrees', this indicates whether rotational values are in degrees (yes) or radians (no).

endheader
time	pelvis_tilt	pelvis_list	pelvis_rotation	pelvis_tx	pelvis_ty	pelvis_tz	hip_flexion_r	hip_adduction_r	hip_rotation_r	knee_angle_r	knee_angle_r_beta	ankle_angle_r	subtalar_angle_r	mtp_angle_r	hip_flexion_l	hip_adduction_l	hip_rotation_l	knee_angle_l	knee_angle_l_beta	ankle_angle_l	subtalar_angle_l	mtp_angle_l	lumbar_extension	lumbar_bending	lumbar_rotation	arm_flex_r	arm_add_r	arm_rot_r	elbow_flex_r	pro_sup_r	wrist_flex_r	wrist_dev_r	arm_flex_l	arm_add_l	arm_rot_l	elbow_flex_l	pro_sup_l	wrist_flex_l	wrist_dev_l
      9.85000000	     28.75782248	     -6.62187463	    178.27462361	      0.32431152	      0.92598983	     -0.56295832	     61.60630711	    -12.26280613	      4.94743934	     38.01873340	      0.66355208	      8.95423347	      0.00000000	      0.00000000	     55.92129451	     -3.20215458	     -9.39448555	     35.09298818	      0.61248819	      7.57392340	      0.00000000	      0.00000000	    -10.89393606	     -5.81577418	     -5.29219021	     29.55776699	     -9.72082032	     35.50512943	     19.04117558	     88.27683612	      0.00000000	      0.00000000	     23.47688210	    -19.08037889	     36.71062111	     27.20433708	     88.02068537	      0.00000000	      0.00000000
      9.85500000	     28.76171427	     -6.65198352	    178.28917267	      0.32252492	      0.92698877	     -0.56283647	     61.35933097	    -12.30220865	      4.94947976	     37.78998725	      0.65955970	      8.99656974	      0.00000000	      0.00000000	     55.63174349	     -3.12952840	     -9.51435729	     34.79917804	      0.60736023	      7.61425921	      0.00000000	      0.00000000	    -10.22104843	     -5.86958537	     -5.24296397	     29.05525048	     -9.73159462	     35.54865916	     18.95294351	     88.28472636	      0.00000000	      0.00000000	     22.99640602	    -19.04286984	     36.82746371	     27.15405414	     88.01686214	      0.00000000	      0.00000000
      9.86000000	     28.65892129	     -6.66153098	    178.30505312	      0.32076434	      0.92800014	     -0.56280331	     61.08871066	    -12.33122725	      4.97421187	     37.73487190	      0.65859776	      8.91565943	      0.00000000	      0.00000000	     55.35055113	     -3.07531122	     -9.52759433	     34.76082683	      0.60669088	      7.58882049	      0.00000000	      0.00000000	     -9.67235819	     -5.91064581	     -5.19812586	     28.59192795	     -9.73709927	     35.59994812	     18.83476407	     88.29741590	      0.00000000	      0.00000000	     22.54551479	    -19.00691411	     36.92794288	     27.05710342	     88.03319665	      0.00000000	      0.00000000
      9.86500000	     29.03154943	     -7.28005167	    178.42384869	      0.31909825	      0.92855553	     -0.56236088	     61.38628547	    -12.76803441	      5.54196632	     37.48092366	      0.65416552	      8.98452459	      0.00000000	      0.00000000	     55.05953761	     -2.30195436	     -9.47968003	     33.62845994	      0.58692735	      7.47872422	      0.00000000	      0.00000000	     -8.56422623	     -6.61367591	     -5.22807488	     27.83483200	     -9.83586184	     35.60798857	     19.12839370	     88.28049982	      0.00000000	      0.00000000	     21.98668504	    -19.10522800	     37.29768362	     27.11550675	     88.02799472	      0.00000000	      0.00000000
      9.87000000	     29.18089746	     -8.04364427	    178.36579071	      0.31714899	      0.92910669	     -0.56238326	     61.65180659	    -13.17073729	      6.24777726	     37.50345377	      0.65455875	      9.05911548	      0.00000000	      0.00000000	     54.67853563	     -1.71784966	    -10.13156721	     32.91974670	      0.57455797	      7.38216370	      0.00000000	      0.00000000	     -7.65243136	     -7.53452509	     -5.12277611	     27.20283113	     -9.77583573	     35.67862679	     19.09624142	     88.27629790	      0.00000000	      0.00000000	     21.50560123	    -19.38417861	     37.98468163	     27.23974766	     88.03593642	      0.00000000	      0.00000000
      9.87500000	     29.05671950	     -8.03269346	    178.35798170	      0.31538246	      0.93011509	     -0.56253347	     61.36534358	    -13.16985078	      6.25781753	     37.46284476	      0.65384999	      8.96654704	      0.00000000	      0.00000000	     54.38865632	     -1.70153902	    -10.16719016	     32.91024697	      0.57439217	      7.38011747	      0.00000000	      0.00000000	     -7.12212401	     -7.57322696	     -5.02755359	     26.75654373	     -9.78049126	     35.73814013	     18.95835489	     88.29031142	      0.00000000	      0.00000000	     21.12011472	    -19.38970884	     38.06795480	     27.15251604	     88.04811314	      0.00000000	      0.00000000
      9.88000000	     29.35939585	     -8.41433788	    178.25922965	      0.31350627	      0.93073082	     -0.56278107	     61.47838348	    -13.26697460	      6.63372242	     37.08356409	      0.64723029	      9.06058972	      0.00000000	      0.00000000	     54.07347791	     -1.35009429	    -10.26538894	     31.93416403	      0.55735631	      7.44210286	      0.00000000	      0.00000000	     -6.04172739	     -8.06790012	     -4.76156050	     26.08642129	     -9.84900135	     35.90092107	     19.07170796	     88.27555531	      0.00000000	      0.00000000	     20.58660624	    -19.50565186	     38.62710987	     27.24062186	     88.04273093	      0.00000000	      0.00000000
